<svg width="32" height="32" viewBox="0 0 32 32" fill="none" xmlns="http://www.w3.org/2000/svg">
  <!-- Gradient definitions -->
  <defs>
    <linearGradient id="robotGradient" x1="0%" y1="0%" x2="100%" y2="100%">
      <stop offset="0%" style="stop-color:#EC4899;stop-opacity:1" />
      <stop offset="50%" style="stop-color:#A855F7;stop-opacity:1" />
      <stop offset="100%" style="stop-color:#06B6D4;stop-opacity:1" />
    </linearGradient>
    <linearGradient id="bodyGradient" x1="0%" y1="0%" x2="100%" y2="100%">
      <stop offset="0%" style="stop-color:#F472B6;stop-opacity:1" />
      <stop offset="100%" style="stop-color:#C084FC;stop-opacity:1" />
    </linearGradient>
    <linearGradient id="eyeGradient" x1="0%" y1="0%" x2="100%" y2="100%">
      <stop offset="0%" style="stop-color:#22D3EE;stop-opacity:1" />
      <stop offset="100%" style="stop-color:#06B6D4;stop-opacity:1" />
    </linearGradient>
  </defs>
  
  <!-- Main background circle -->
  <circle cx="16" cy="16" r="16" fill="url(#robotGradient)"/>
  
  <!-- Robot head -->
  <rect x="8" y="8" width="16" height="14" rx="3" fill="url(#bodyGradient)"/>
  
  <!-- Robot antennae -->
  <circle cx="12" cy="6" r="1.5" fill="#22D3EE"/>
  <rect x="11.5" y="6" width="1" height="2" fill="#22D3EE"/>
  <circle cx="20" cy="6" r="1.5" fill="#22D3EE"/>
  <rect x="19.5" y="6" width="1" height="2" fill="#22D3EE"/>
  
  <!-- Robot eyes -->
  <circle cx="12" cy="13" r="2.5" fill="url(#eyeGradient)"/>
  <circle cx="20" cy="13" r="2.5" fill="url(#eyeGradient)"/>
  <circle cx="12" cy="13" r="1" fill="#FFFFFF"/>
  <circle cx="20" cy="13" r="1" fill="#FFFFFF"/>
  
  <!-- Robot mouth -->
  <rect x="14" y="18" width="4" height="1.5" rx="0.75" fill="#22D3EE"/>
  
  <!-- Robot body -->
  <rect x="10" y="22" width="12" height="8" rx="2" fill="url(#bodyGradient)"/>
  
  <!-- Robot chest panel -->
  <rect x="13" y="24" width="6" height="4" rx="1" fill="#22D3EE" opacity="0.7"/>
  <circle cx="16" cy="26" r="1" fill="#FFFFFF"/>
  
  <!-- Robot arms -->
  <rect x="6" y="24" width="3" height="4" rx="1.5" fill="url(#bodyGradient)"/>
  <rect x="23" y="24" width="3" height="4" rx="1.5" fill="url(#bodyGradient)"/>
  
  <!-- Sparkle effects -->
  <circle cx="24" cy="10" r="0.5" fill="#FBBF24" opacity="0.8"/>
  <circle cx="26" cy="14" r="0.3" fill="#FBBF24" opacity="0.6"/>
  <circle cx="6" cy="12" r="0.4" fill="#FBBF24" opacity="0.7"/>
</svg> 